<?xml version="1.0"?>
<svg xmlns="http://www.w3.org/2000/svg" xmlns:lc="http://www.librecad.org" xmlns:xlink="http://www.w3.org/1999/xlink" width="98.33644384mm" height="380mm" viewBox="0 0 98.33644384 380">
    <g lc:layername="0" lc:is_locked="false" lc:is_construction="false" fill="none" stroke="black" stroke-width="1">
        <path d="M38.0869945,36.12207331 L32.52876543,11.12207331 L39.86755273,11.12207331 L42.51432847,25.10186157 L46.3882457,11.12207331 L53.6789098,11.12207331 L57.55282703,25.05373837 L60.22366437,11.12207331 L67.51432847,11.12207331 L62.0042226,36.12207331 L54.42481933,36.12207331 L50.04560855,20.38578842 L45.66639777,36.12207331 L38.0869945,36.12207331 Z "/>
        <path d="M63.33644384,359.5 L63.33644384,349.5 L68.33644384,349.5 L68.33644384,359.5 L63.33644384,359.5 Z "/>
        <path d="M63.33644384,304.5 L63.33644384,294.5 L68.33644384,294.5 L68.33644384,304.5 L63.33644384,304.5 Z "/>
        <path d="M63.33644384,249.5 L63.33644384,239.5 L68.33644384,239.5 L68.33644384,249.5 L63.33644384,249.5 Z "/>
        <path d="M63.33644384,194.5 L63.33644384,184.5 L68.33644384,184.5 L68.33644384,194.5 L63.33644384,194.5 Z "/>
        <path d="M63.33644384,139.5 L63.33644384,129.5 L68.33644384,129.5 L68.33644384,139.5 L63.33644384,139.5 Z "/>
        <path d="M63.33644384,84.5 L63.33644384,74.5 L68.33644384,74.5 L68.33644384,84.5 L63.33644384,84.5 Z "/>
        <path d="M83.33644384,84.5 L83.33644384,74.5 L88.33644384,74.5 L88.33644384,84.5 L83.33644384,84.5 Z "/>
        <path d="M83.33644384,139.5 L83.33644384,129.5 L88.33644384,129.5 L88.33644384,139.5 L83.33644384,139.5 Z "/>
        <path d="M83.33644384,194.5 L83.33644384,184.5 L88.33644384,184.5 L88.33644384,194.5 L83.33644384,194.5 Z "/>
        <path d="M83.33644384,249.5 L83.33644384,239.5 L88.33644384,239.5 L88.33644384,249.5 L83.33644384,249.5 Z "/>
        <path d="M83.33644384,304.5 L83.33644384,294.5 L88.33644384,294.5 L88.33644384,304.5 L83.33644384,304.5 Z "/>
        <path d="M83.33644384,359.5 L83.33644384,349.5 L88.33644384,349.5 L88.33644384,359.5 L83.33644384,359.5 Z "/>
        <path d="M88.33644384,380 A10,10 0 0,0 98.33644384,370 L98.33644384,10 A10,10 0 0,0 88.33644384,0 L10,0 A10,10 0 0,0 0,10 L0,52 L50,52 L50,55 L0,55 L0,107 L50,107 L50,110 L0,110 L0,162 L50,162 L50,165 L0,165 L0,217 L50,217 L50,220 L0,220 L0,272 L50,272 L50,275 L0,275 L0,327 L50,327 L50,330 L0,330 L0,370 A10,10 0 0,0 10,380 L88.33644384,380 Z "/>
    </g>
</svg>
