<?xml version="1.0"?>
<svg xmlns="http://www.w3.org/2000/svg" xmlns:lc="http://www.librecad.org" xmlns:xlink="http://www.w3.org/1999/xlink" width="350mm" height="350mm" viewBox="0 0 350 350">
    <g lc:layername="0" lc:is_locked="false" lc:is_construction="false" fill="none" stroke="black" stroke-width="1">
        <path d="M276.31092887,71.83381668 A2,2 0 0,1 273.57887806,72.56586749 L268.38272564,69.56586749 A2,2 0 0,1 267.65067483,66.83381668 L270.65067483,61.63766426 A2,2 0 0,1 273.38272564,60.90561345 L278.57887806,63.90561345 A2,2 0 0,1 279.31092887,66.63766426 L276.31092887,71.83381668 Z "/>
        <path d="M136.31092887,35.67907026 A2,2 0 0,1 135.57887806,38.41112107 L130.38272564,41.41112107 A2,2 0 0,1 127.65067483,40.67907026 L124.65067483,35.48291783 A2,2 0 0,1 125.38272564,32.75086703 L130.57887806,29.75086703 A2,2 0 0,1 133.31092887,30.48291783 L136.31092887,35.67907026 Z "/>
        <path d="M35,138.84525358 A2,2 0 0,1 37,140.84525358 L37,146.84525358 A2,2 0 0,1 35,148.84525358 L29,148.84525358 A2,2 0 0,1 27,146.84525358 L27,140.84525358 A2,2 0 0,1 29,138.84525358 L35,138.84525358 Z "/>
        <path d="M73.68907113,278.16618332 A2,2 0 0,1 76.42112194,277.43413251 L81.61727436,280.43413251 A2,2 0 0,1 82.34932517,283.16618332 L79.34932517,288.36233574 A2,2 0 0,1 76.61727436,289.09438655 L71.42112194,286.09438655 A2,2 0 0,1 70.68907113,283.36233574 L73.68907113,278.16618332 Z "/>
        <path d="M213.68907113,314.32092974 A2,2 0 0,1 214.42112194,311.58887893 L219.61727436,308.58887893 A2,2 0 0,1 222.34932517,309.32092974 L225.34932517,314.51708217 A2,2 0 0,1 224.61727436,317.24913297 L219.42112194,320.24913297 A2,2 0 0,1 216.68907113,319.51708217 L213.68907113,314.32092974 Z "/>
        <path d="M315,211.15474642 A2,2 0 0,1 313,209.15474642 L313,203.15474642 A2,2 0 0,1 315,201.15474642 L321,201.15474642 A2,2 0 0,1 323,203.15474642 L323,209.15474642 A2,2 0 0,1 321,211.15474642 L315,211.15474642 Z "/>
        <circle cx="175" cy="175" r="175"/>
        <circle cx="175" cy="175" r="60"/>
        <circle cx="270" cy="150.5" r="1.25"/>
        <circle cx="270" cy="199.5" r="1.25"/>
        <circle cx="328" cy="199.5" r="1.25"/>
        <circle cx="328" cy="150.5" r="1.25"/>
        <circle cx="243.71762239" cy="245.02241336" r="1.25"/>
        <circle cx="201.28237761" cy="269.52241336" r="1.25"/>
        <circle cx="230.28237761" cy="319.75188678" r="1.25"/>
        <circle cx="272.71762239" cy="295.25188678" r="1.25"/>
        <circle cx="148.71762239" cy="269.52241336" r="1.25"/>
        <circle cx="106.28237761" cy="245.02241336" r="1.25"/>
        <circle cx="77.28237761" cy="295.25188678" r="1.25"/>
        <circle cx="119.71762239" cy="319.75188678" r="1.25"/>
        <circle cx="80" cy="199.5" r="1.25"/>
        <circle cx="80" cy="150.5" r="1.25"/>
        <circle cx="22" cy="150.5" r="1.25"/>
        <circle cx="22" cy="199.5" r="1.25"/>
        <circle cx="106.28237761" cy="104.97758664" r="1.25"/>
        <circle cx="148.71762239" cy="80.47758664" r="1.25"/>
        <circle cx="119.71762239" cy="30.24811322" r="1.25"/>
        <circle cx="77.28237761" cy="54.74811322" r="1.25"/>
        <circle cx="201.28237761" cy="80.47758664" r="1.25"/>
        <circle cx="243.71762239" cy="104.97758664" r="1.25"/>
        <circle cx="272.71762239" cy="54.74811322" r="1.25"/>
        <circle cx="230.28237761" cy="30.24811322" r="1.25"/>
    </g>
</svg>
